<?xml version="1.0" encoding="utf-8"?>
<!-- Generator: Adobe Illustrator 16.0.0, SVG Export Plug-In . SVG Version: 6.00 Build 0)  -->
<!DOCTYPE svg PUBLIC "-//W3C//DTD SVG 1.1//EN" "http://www.w3.org/Graphics/SVG/1.1/DTD/svg11.dtd">
<svg version="1.1" id="Layer_1" xmlns="http://www.w3.org/2000/svg" xmlns:xlink="http://www.w3.org/1999/xlink" x="0px" y="0px"
	 width="155px" height="25px" viewBox="0 0 155 25" enable-background="new 0 0 155 25" xml:space="preserve">
<g>
	<path d="M6.863,7.004V23H2.105V7.004H6.863z M15.992,7.004l-4.219,7.254L15.969,23h-5.344l-3.621-8.836l4.102-7.16H15.992z"/>
	<path fill="#333333" d="M27.25,9.003l-3.958,6.224V23h-4.163v-7.772L15.14,9.003h4.225l1.805,2.881l1.938-2.881H27.25z"/>
	<path fill="#333333" d="M37.78,9.003v9.075c0,1.6-0.477,2.878-1.431,3.835c-0.953,0.957-2.223,1.436-3.809,1.436
		c-1.579,0-2.788-0.465-3.625-1.395c-0.838-0.93-1.256-2.267-1.256-4.009V9.003h4.163v8.931c0,0.854,0.304,1.282,0.913,1.282
		c0.588,0,0.882-0.428,0.882-1.282V9.003H37.78z"/>
	<path fill="#333333" d="M40.026,23v-9.085c0-1.593,0.477-2.868,1.43-3.825c0.954-0.957,2.224-1.436,3.81-1.436
		c1.579,0,2.787,0.465,3.625,1.395c0.837,0.93,1.256,2.266,1.256,4.009V23h-4.163v-8.941c0-0.854-0.304-1.282-0.913-1.282
		c-0.588,0-0.882,0.427-0.882,1.282V23H40.026z"/>
	<path d="M59.653,14.035h4.535c0.977,1.211,1.465,2.488,1.465,3.832c0,1.563-0.572,2.875-1.717,3.938s-2.553,1.594-4.225,1.594
		c-2.172,0-4.016-0.824-5.531-2.473s-2.273-3.656-2.273-6.023c0-2.375,0.771-4.352,2.314-5.93s3.471-2.367,5.783-2.367
		c0.789,0,1.664,0.16,2.625,0.48v4.758c-0.75-0.352-1.434-0.527-2.051-0.527c-1.117,0-2.029,0.348-2.736,1.043
		s-1.061,1.598-1.061,2.707c0,1.133,0.328,2.031,0.984,2.695s1.543,0.996,2.66,0.996c0.711,0,1.066-0.207,1.066-0.621
		c0-0.313-0.234-0.469-0.703-0.469h-1.137V14.035z"/>
	<path fill="#333333" d="M71.385,9.003v9.434c0,1.422-0.403,2.596-1.21,3.521c-0.807,0.927-1.829,1.39-3.066,1.39
		c-0.362,0-0.786-0.079-1.271-0.235v-4.03c0.205,0.089,0.393,0.134,0.564,0.134c0.547,0,0.82-0.441,0.82-1.323v-8.89H71.385z"/>
	<path fill="#333333" d="M83.608,9.003v9.075c0,1.6-0.477,2.878-1.431,3.835c-0.953,0.957-2.223,1.436-3.809,1.436
		c-1.579,0-2.788-0.465-3.625-1.395c-0.838-0.93-1.256-2.267-1.256-4.009V9.003h4.163v8.931c0,0.854,0.304,1.282,0.913,1.282
		c0.588,0,0.882-0.428,0.882-1.282V9.003H83.608z"/>
	<path fill="#333333" d="M85.853,23v-9.085c0-1.593,0.477-2.868,1.43-3.825c0.954-0.957,2.224-1.436,3.81-1.436
		c1.579,0,2.787,0.465,3.625,1.395c0.837,0.93,1.256,2.266,1.256,4.009V23h-4.163v-8.941c0-0.854-0.305-1.282-0.913-1.282
		c-0.588,0-0.881,0.427-0.881,1.282V23H85.853z"/>
	<path fill="#333333" d="M104.445,23V9.547c0-1.668,0.506-3.03,1.518-4.088c1.012-1.057,2.324-1.586,3.938-1.586
		c1.914,0,3.386,0.88,4.416,2.639c0.629-0.948,1.304-1.625,2.023-2.03c0.72-0.405,1.608-0.608,2.666-0.608
		c1.677,0,2.962,0.529,3.855,1.586c0.894,1.058,1.34,2.58,1.34,4.566V23h-5.551V10.859c0-0.602-0.048-1-0.144-1.196
		c-0.096-0.196-0.289-0.294-0.581-0.294c-0.547,0-0.82,0.465-0.82,1.395V23h-5.551V10.859c0-0.592-0.05-0.989-0.15-1.189
		c-0.101-0.2-0.296-0.301-0.588-0.301c-0.547,0-0.82,0.497-0.82,1.49V23H104.445z"/>
</g>
<g>
	<path fill="#333333" d="M136.252,21.915c0,0.354-0.269,0.531-0.805,0.531c-0.499,0-0.929-0.21-1.289-0.63s-0.596-1.012-0.706-1.777
		c-0.938,2.239-2.053,3.359-3.347,3.359c-0.937,0-1.743-0.485-2.418-1.456c-0.675-0.97-1.012-2.202-1.012-3.695
		c0-1.755,0.485-3.389,1.456-4.9c0.914-1.418,1.792-2.128,2.632-2.128c0.598,0.131,1.092,0.392,1.484,0.784
		c0.578,0.28,1.054,0.774,1.428,1.483l0.112-0.587v-0.196c0-0.261,0.211-0.392,0.634-0.392c0.331,0,0.621,0.098,0.869,0.294
		c0.248,0.196,0.373,0.406,0.373,0.63c0,0.112-0.066,0.234-0.196,0.364c-0.522,1.886-0.784,3.799-0.784,5.74
		c0,1.736,0.233,2.604,0.7,2.604c0.149-0.037,0.242-0.074,0.28-0.111c0.019-0.149,0.103-0.225,0.252-0.225
		C136.14,21.606,136.252,21.71,136.252,21.915z M133.452,14.606c0-0.578-0.164-1.06-0.49-1.442
		c-0.327-0.382-0.687-0.573-1.078-0.573c-0.803,0-1.568,0.653-2.296,1.96c-0.784,1.419-1.176,3.024-1.176,4.816
		c0,1.102,0.177,1.964,0.531,2.59c0.354,0.625,0.821,0.938,1.4,0.938c0.896,0,1.614-0.784,2.156-2.352
		c0.279-0.858,0.508-1.839,0.686-2.94C133.363,16.502,133.452,15.503,133.452,14.606z"/>
	<path fill="#333333" d="M144.483,8.65c0,2.654-0.373,5.001-1.12,7.038c-0.747,2.038-1.727,3.515-2.939,4.432
		c0.484,1.85,1.204,2.774,2.155,2.774c0.448,0,0.766-0.111,0.952-0.336c0.168-0.262,0.346-0.522,0.532-0.784
		c0.205,0,0.308,0.131,0.308,0.393c0,0.279-0.187,0.555-0.56,0.826c-0.374,0.27-0.821,0.405-1.344,0.405
		c-1.307,0-2.324-0.942-3.053-2.828h-0.728c-0.467,0-0.816-0.079-1.05-0.237s-0.351-0.351-0.351-0.574c0-0.187,0.094-0.28,0.28-0.28
		c0.056,0,0.178,0.099,0.364,0.294c0.187,0.196,0.438,0.294,0.756,0.294h0.56c-0.467-1.65-0.699-3.377-0.699-5.179
		c0-2.739,0.429-5.384,1.288-7.937c0.373-1.088,0.77-1.899,1.189-2.434s0.91-0.802,1.47-0.802
		C143.82,3.715,144.483,5.36,144.483,8.65z M143.56,9.359c0-2.942-0.354-4.413-1.064-4.413c-0.485,0-1.008,1.003-1.567,3.007
		c-0.654,2.324-0.98,4.957-0.98,7.898c0,1.574,0.112,2.839,0.336,3.794c0.934-0.655,1.713-1.901,2.338-3.738
		C143.247,14.072,143.56,11.889,143.56,9.359z"/>
	<path fill="#333333" d="M152.38,8.65c0,2.654-0.374,5.001-1.12,7.038c-0.747,2.038-1.728,3.515-2.94,4.432
		c0.485,1.85,1.204,2.774,2.156,2.774c0.448,0,0.765-0.111,0.952-0.336c0.168-0.262,0.345-0.522,0.532-0.784
		c0.205,0,0.308,0.131,0.308,0.393c0,0.279-0.187,0.555-0.561,0.826c-0.373,0.27-0.821,0.405-1.344,0.405
		c-1.307,0-2.324-0.942-3.052-2.828h-0.729c-0.467,0-0.816-0.079-1.05-0.237s-0.35-0.351-0.35-0.574c0-0.187,0.093-0.28,0.28-0.28
		c0.056,0,0.177,0.099,0.363,0.294c0.187,0.196,0.438,0.294,0.756,0.294h0.561c-0.467-1.65-0.7-3.377-0.7-5.179
		c0-2.739,0.43-5.384,1.288-7.937c0.373-1.088,0.771-1.899,1.19-2.434s0.909-0.802,1.47-0.802
		C151.717,3.715,152.38,5.36,152.38,8.65z M151.455,9.359c0-2.942-0.354-4.413-1.063-4.413c-0.485,0-1.008,1.003-1.568,3.007
		c-0.653,2.324-0.979,4.957-0.979,7.898c0,1.574,0.111,2.839,0.336,3.794c0.933-0.655,1.712-1.901,2.338-3.738
		C151.143,14.072,151.455,11.889,151.455,9.359z"/>
</g>
</svg>
